<?xml version="1.0" encoding="utf-8"?>
<!-- Generator: Adobe Illustrator 15.0.0, SVG Export Plug-In . SVG Version: 6.00 Build 0)  -->
<!DOCTYPE svg PUBLIC "-//W3C//DTD SVG 1.1//EN" "http://www.w3.org/Graphics/SVG/1.1/DTD/svg11.dtd">
<svg version="1.1" id="Layer_1" xmlns="http://www.w3.org/2000/svg" xmlns:xlink="http://www.w3.org/1999/xlink" x="0px" y="0px"
	 width="200.499px" height="68.333px" viewBox="0 0 200.499 68.333" enable-background="new 0 0 200.499 68.333"
	 xml:space="preserve">
<g>
	<path fill="#4A7729" d="M21.287,62.775c-0.372,1.836-1.693,2.836-3.565,2.836c-2.66,0-3.918-1.838-3.999-4.385
		c0-2.5,1.644-4.338,3.918-4.338c2.952,0,3.854,2.757,3.773,4.773h-6.241c-0.047,1.452,0.773,2.744,2.596,2.744
		c1.129,0,1.92-0.55,2.163-1.63H21.287z M19.964,60.451c-0.066-1.306-1.047-2.354-2.402-2.354c-1.437,0-2.292,1.081-2.388,2.354
		H19.964z"/>
	<path fill="#4A7729" d="M26.541,53.903h2.598l4.305,11.516h-2.628l-0.872-2.566h-4.306l-0.903,2.566H22.17L26.541,53.903z
		 M26.299,60.968h2.985l-1.453-4.225H27.8L26.299,60.968z"/>
	<path fill="#4A7729" d="M33.879,57.083h2.178v1.545h0.032c0.419-1.046,1.549-1.772,2.66-1.772c0.161,0,0.355,0.029,0.501,0.08
		v2.129c-0.21-0.048-0.548-0.082-0.824-0.082c-1.678,0-2.256,1.21-2.256,2.677v3.759h-2.292V57.083z"/>
	<path fill="#4A7729" d="M41.426,61.805c0.065,1.452,0.773,2.115,2.048,2.115c0.919,0,1.661-0.566,1.806-1.083h2.017
		c-0.646,1.969-2.017,2.809-3.905,2.809c-2.627,0-4.256-1.807-4.256-4.389c0-2.498,1.724-4.401,4.256-4.401
		c2.839,0,4.212,2.389,4.05,4.949H41.426z M45.15,60.355c-0.209-1.161-0.709-1.774-1.821-1.774c-1.452,0-1.873,1.128-1.904,1.774
		H45.15z"/>
	<path fill="#4A7729" d="M49.087,53.903h6.306c3.031,0,3.679,1.709,3.679,2.886c0,1.161-0.566,1.792-1.421,2.258
		c1.033,0.355,2,1.177,2,2.873c0,2.305-2,3.499-4.031,3.499h-6.533V53.903z M52.634,58.386h1.873c0.74,0,1.21-0.207,1.21-0.95
		c0-0.58-0.486-0.791-1.21-0.791h-1.873V58.386z M52.634,62.677h2.081c0.743,0,1.389-0.21,1.389-1.097
		c0-0.679-0.404-1.048-1.243-1.048h-2.227V62.677z"/>
	<path fill="#4A7729" d="M69.135,65.419h-3.082v-1.065h-0.032c-0.595,0.839-1.453,1.274-2.727,1.274c-1.5,0-2.872-0.919-2.872-2.838
		v-5.743h3.194v4.389c0,0.968,0.114,1.643,1.051,1.643c0.547,0,1.273-0.273,1.273-1.614v-4.418h3.194V65.419z"/>
	<path fill="#4A7729" d="M73.325,56.147h-3.193v-2.242h3.193V56.147z M70.134,57.047h3.193v8.372h-3.193V57.047z"/>
	<rect x="74.406" y="53.905" fill="#4A7729" width="3.194" height="11.514"/>
	<path fill="#4A7729" d="M87.328,65.419h-3.082V64.5h-0.032c-0.404,0.531-0.887,1.128-2.452,1.128c-2.372,0-3.515-2.336-3.515-4.436
		c0-1.967,0.757-4.354,3.562-4.354c0.952,0,1.807,0.419,2.29,1.13h0.034v-4.065h3.194V65.419z M82.841,59.163
		c-1.143,0-1.4,1.079-1.4,2.063c0,1.001,0.257,2.082,1.4,2.082c1.146,0,1.405-1.081,1.405-2.082
		C84.246,60.242,83.987,59.163,82.841,59.163"/>
	<path fill="#4A7729" d="M91.521,53.905h-3.192v2.242h3.192V53.905z M88.328,65.419h3.192v-8.372h-3.192V65.419z"/>
	<path fill="#4A7729" d="M92.613,57.047h3.082v1.065h0.032c0.595-0.839,1.451-1.274,2.726-1.274c1.499,0,2.872,0.921,2.872,2.839
		v5.742h-3.195v-4.387c0-0.968-0.114-1.647-1.05-1.647c-0.547,0-1.272,0.275-1.272,1.616v4.418h-3.194V57.047z"/>
	<path fill="#4A7729" d="M111.113,64.338c0,1.663-0.438,4-4.354,4c-1.985,0-4.081-0.533-4.373-2.791h3.164
		c0.032,0.08,0.112,0.195,0.175,0.291c0.194,0.287,0.532,0.611,0.937,0.611c1.033,0,1.259-1.224,1.259-1.918v-0.774h-0.032
		c-0.516,0.743-1.289,1.161-2.243,1.161c-2.467,0-3.579-1.838-3.579-4.079c0-2.176,1.241-4,3.629-4c0.934,0,1.82,0.369,2.192,1.226
		h0.032v-1.017h3.193V64.338z M106.695,62.871c1.177,0,1.305-1.128,1.305-2.063c0-0.923-0.45-1.645-1.387-1.645
		c-0.904,0-1.354,0.773-1.354,1.659C105.26,61.774,105.55,62.871,106.695,62.871"/>
	<rect x="111.999" y="62.227" fill="#4A7729" width="3.355" height="3.193"/>
	<path fill="#4A7729" d="M177.646,11.373h10.827V16.1h0.112c1.823-3.532,4.212-5.47,8.312-5.47c1.142,0,2.223,0.173,3.308,0.458
		v9.967c-1.142-0.398-2.166-0.738-4.441-0.738c-4.444,0-6.835,2.617-6.835,8.942v11.676h-11.283V11.373z"/>
	<path fill="#4A7729" d="M3.469,40.935H5.38V0.265H3.469V40.935z M0.24,40.935h1.875V0.265H0.24V40.935z M29.804,0.265
		l-5.813,23.924h-0.111L18.068,0.265H10v40.67h2.088V14.849H12.2l7.065,26.086h9.342l7.063-26.086h0.114v26.086h11.848V0.265H29.804
		z M6.737,40.935h1.909V0.265H6.737V40.935z"/>
	<path fill="#4A7729" d="M64.54,10.631c-9.341,0-15.607,7.006-15.607,15.604c0,9.855,7.12,15.439,16.577,15.439
		c6.718,0,12.932-2.96,15.208-9.342H70.179c-0.913,1.423-2.906,2.108-4.728,2.108c-3.533,0-5.47-2.391-5.754-5.751h21.647
		C81.344,17.181,76.274,10.631,64.54,10.631 M59.756,22.821c0.512-3.189,2.448-4.953,5.809-4.953c2.904,0,4.956,2.219,4.956,4.953
		H59.756z M159.887,34.44c-3.526,0-5.465-2.391-5.745-5.751h21.639c0-11.508-5.066-18.058-16.799-18.058
		c-9.345,0-15.606,7.006-15.606,15.604c0,9.855,7.117,15.439,16.572,15.439c6.721,0,12.933-2.96,15.213-9.342h-10.543
		C163.704,33.755,161.717,34.44,159.887,34.44 M160.002,17.868c2.906,0,4.963,2.219,4.963,4.953H154.19
		C154.709,19.632,156.644,17.868,160.002,17.868 M135.281,22.99c-3.755-1.252-8.028-1.481-9.91-2.275
		c-0.624-0.287-1.308-0.685-1.308-1.54c0-1.938,1.823-2.278,3.418-2.278c0.909,0,1.822,0.283,2.508,0.853
		c0.735,0.513,1.249,1.255,1.31,2.223h10.251c-0.283-7.574-7.974-9.342-14.352-9.342c-5.925,0-13.958,1.936-13.958,9.398
		c0,5.068,3.475,7.805,12.078,9.286c5.238,0.912,6.208,1.423,6.208,3.132c0,1.708-2.336,2.277-3.817,2.277
		c-1.369,0-2.451-0.341-3.024-0.853c-0.527-0.461-0.882-0.974-1.104-1.536h-10.933c0.847,6.807,8.058,9.338,14.66,9.338
		c7.178,0,15.038-2.221,15.038-10.423C142.346,26.408,139.046,24.187,135.281,22.99 M104.869,22.99
		c-3.763-1.252-8.033-1.481-9.912-2.275c-0.627-0.287-1.311-0.685-1.311-1.54c0-1.938,1.823-2.278,3.419-2.278
		c0.912,0,1.821,0.283,2.506,0.853c0.74,0.513,1.249,1.255,1.31,2.223h10.251c-0.285-7.574-7.974-9.342-14.353-9.342
		c-5.923,0-13.957,1.936-13.957,9.398c0,5.068,3.475,7.805,12.077,9.286c5.24,0.912,6.207,1.423,6.207,3.132
		c0,1.708-2.332,2.277-3.815,2.277c-1.367,0-2.45-0.341-3.017-0.853c-0.532-0.463-0.892-0.974-1.113-1.536H82.234
		c0.841,6.807,8.053,9.338,14.66,9.338c7.176,0,15.035-2.221,15.035-10.423C111.929,26.408,108.627,24.187,104.869,22.99"/>
	<polygon fill="#4A7729" points="13.222,53.903 10.883,63.481 10.852,63.481 8.301,53.903 6.643,53.903 4.062,63.481 4.029,63.481 
		1.773,53.903 0.206,53.903 3.158,65.419 4.754,65.419 7.416,55.744 7.448,55.744 10.076,65.419 11.672,65.419 14.754,53.903 	"/>
</g>
</svg>
